<svg xmlns="http://www.w3.org/2000/svg" version="1.1" xmlns:xlink="http://www.w3.org/1999/xlink" xmlns:svgjs="http://svgjs.dev/svgjs" width="2000" height="272" viewBox="0 0 2000 272"><g transform="matrix(1,0,0,1,-1.2121212121212466,0.646784716862129)"><svg viewBox="0 0 396 54" data-background-color="#60a5fa" preserveAspectRatio="xMidYMid meet" height="272" width="2000" xmlns="http://www.w3.org/2000/svg" xmlns:xlink="http://www.w3.org/1999/xlink"><g id="tight-bounds" transform="matrix(1,0,0,1,0.2400000000000091,-0.12840578937704095)"><svg viewBox="0 0 395.52 54.25681157875405" height="54.25681157875405" width="395.52"><g><svg viewBox="0 0 497.4728061949126 68.24253719475982" height="54.25681157875405" width="395.52"><g transform="matrix(1,0,0,1,101.95280619491268,4.728679701559578)"><svg viewBox="0 0 395.5199999999999 58.78517779164066" height="58.78517779164066" width="395.5199999999999"><g id="textblocktransform"><svg viewBox="0 0 395.5199999999999 58.78517779164066" height="58.78517779164066" width="395.5199999999999" id="textblock"><g><svg viewBox="0 0 395.5199999999999 58.78517779164066" height="58.78517779164066" width="395.5199999999999"><g transform="matrix(1,0,0,1,0,0)"><svg width="395.5199999999999" viewBox="4.45 -36.5 320.56 47.65" height="58.78517779164066" data-palette-color="#f6f6f6"><path d="M16.5 0L4.45 0 4.45-35.5 16.5-35.5Q22.15-35.5 25.93-33.13 29.7-30.75 31.6-26.73 33.5-22.7 33.5-17.8L33.5-17.8Q33.5-12.4 31.43-8.4 29.35-4.4 25.53-2.2 21.7 0 16.5 0L16.5 0ZM30-17.8L30-17.8Q30-22.05 28.43-25.35 26.85-28.65 23.85-30.53 20.85-32.4 16.5-32.4L16.5-32.4 7.95-32.4 7.95-3.1 16.5-3.1Q20.9-3.1 23.9-5.05 26.9-7 28.45-10.33 30-13.65 30-17.8ZM42.9 0L39.5 0 39.5-26.05 42.9-26.05 42.9 0ZM42.9-31.5L39.5-31.5 39.5-36.5 42.9-36.5 42.9-31.5ZM60.85 0.35L60.85 0.35Q58.2 0.35 55.95-0.75 53.7-1.85 52.07-3.73 50.45-5.6 49.55-8 48.65-10.4 48.65-12.95L48.65-12.95Q48.65-15.7 49.52-18.13 50.4-20.55 52.02-22.45 53.65-24.35 55.85-25.43 58.05-26.5 60.75-26.5L60.75-26.5Q64.09-26.5 66.57-24.8 69.05-23.1 70.75-20.6L70.75-20.6 70.75-26.05 73.8-26.05 73.8 0.1Q73.8 3.7 72.07 6.18 70.34 8.65 67.42 9.9 64.5 11.15 61.05 11.15L61.05 11.15Q56.6 11.15 53.85 9.55 51.1 7.95 49.35 5.25L49.35 5.25 51.45 3.6Q53 6.05 55.57 7.25 58.15 8.45 61.05 8.45L61.05 8.45Q63.59 8.45 65.72 7.53 67.84 6.6 69.12 4.75 70.4 2.9 70.4 0.1L70.4 0.1 70.4-5.05Q68.9-2.6 66.3-1.13 63.7 0.35 60.85 0.35ZM61.8-2.5L61.8-2.5Q63.34-2.5 64.77-3.05 66.2-3.6 67.4-4.53 68.59-5.45 69.4-6.6 70.2-7.75 70.4-8.95L70.4-8.95 70.4-17Q69.65-18.9 68.25-20.38 66.84-21.85 65.07-22.68 63.3-23.5 61.4-23.5L61.4-23.5Q59.2-23.5 57.47-22.58 55.75-21.65 54.57-20.13 53.4-18.6 52.75-16.7 52.1-14.8 52.1-12.9L52.1-12.9Q52.1-10.8 52.85-8.93 53.6-7.05 54.92-5.58 56.25-4.1 58.02-3.3 59.8-2.5 61.8-2.5ZM84.69 0L81.29 0 81.29-26.05 84.69-26.05 84.69 0ZM84.69-31.5L81.29-31.5 81.29-36.5 84.69-36.5 84.69-31.5ZM103.79-4L104.69-1.25Q104.29-1.1 103.44-0.7 102.59-0.3 101.39 0 100.19 0.3 98.79 0.3L98.79 0.3Q97.34 0.3 96.07-0.25 94.79-0.8 94.04-1.93 93.29-3.05 93.29-4.7L93.29-4.7 93.29-23.35 89.69-23.35 89.69-26.05 93.29-26.05 93.29-34.85 96.69-34.85 96.69-26.05 102.69-26.05 102.69-23.35 96.69-23.35 96.69-5.65Q96.79-4.25 97.72-3.55 98.64-2.85 99.84-2.85L99.84-2.85Q101.24-2.85 102.39-3.33 103.54-3.8 103.79-4L103.79-4ZM106.84-7.5L106.84-7.5Q106.84-9.95 108.24-11.73 109.64-13.5 112.11-14.48 114.59-15.45 117.84-15.45L117.84-15.45Q119.74-15.45 121.79-15.15 123.84-14.85 125.44-14.25L125.44-14.25 125.44-16.45Q125.44-19.75 123.49-21.7 121.54-23.65 118.09-23.65L118.09-23.65Q115.99-23.65 113.96-22.88 111.94-22.1 109.74-20.6L109.74-20.6 108.44-23Q110.99-24.75 113.44-25.63 115.89-26.5 118.44-26.5L118.44-26.5Q123.24-26.5 126.04-23.75 128.84-21 128.84-16.15L128.84-16.15 128.84-4.1Q128.84-3.4 129.14-3.08 129.44-2.75 130.09-2.7L130.09-2.7 130.09 0Q129.54 0.05 129.14 0.1 128.74 0.15 128.54 0.1L128.54 0.1Q127.29 0.05 126.64-0.7 125.99-1.45 125.94-2.3L125.94-2.3 125.89-4.2Q124.14-1.95 121.34-0.73 118.54 0.5 115.64 0.5L115.64 0.5Q113.14 0.5 111.11-0.58 109.09-1.65 107.96-3.48 106.84-5.3 106.84-7.5ZM124.29-5.5L124.29-5.5Q124.84-6.2 125.14-6.85 125.44-7.5 125.44-8L125.44-8 125.44-11.8Q123.74-12.45 121.91-12.8 120.09-13.15 118.24-13.15L118.24-13.15Q114.59-13.15 112.34-11.7 110.09-10.25 110.09-7.75L110.09-7.75Q110.09-6.3 110.84-5.03 111.59-3.75 113.04-2.93 114.49-2.1 116.44-2.1L116.44-2.1Q118.89-2.1 121.01-3.05 123.14-4 124.29-5.5ZM136.34-4.75L136.34-36.5 139.74-36.5 139.74-5.9Q139.74-3.95 140.44-3.35 141.13-2.75 142.13-2.75L142.13-2.75Q143.03-2.75 143.94-2.95 144.84-3.15 145.49-3.35L145.49-3.35 146.09-0.6Q145.13-0.2 143.76 0.05 142.38 0.3 141.38 0.3L141.38 0.3Q139.09 0.3 137.71-1.05 136.34-2.4 136.34-4.75L136.34-4.75ZM188.43-9.15L188.43-9.15Q188.43-6.5 187.08-4.42 185.73-2.35 183.46-1.18 181.18 0 178.48 0L178.48 0 161.73 0 161.73-35.5 178.83-35.5Q181.33-35.5 183.16-34.18 184.98-32.85 185.96-30.78 186.93-28.7 186.93-26.45L186.93-26.45Q186.93-23.8 185.58-21.55 184.23-19.3 181.83-18.2L181.83-18.2Q184.88-17.3 186.66-14.85 188.43-12.4 188.43-9.15ZM184.93-9.75L184.93-9.75Q184.93-11.55 184.13-13.08 183.33-14.6 181.96-15.55 180.58-16.5 178.83-16.5L178.83-16.5 165.23-16.5 165.23-3.05 178.48-3.05Q180.28-3.05 181.73-4 183.18-4.95 184.06-6.48 184.93-8 184.93-9.75ZM177.73-32.45L165.23-32.45 165.23-19.35 177.43-19.35Q179.18-19.35 180.53-20.28 181.88-21.2 182.68-22.7 183.48-24.2 183.48-25.9L183.48-25.9Q183.48-27.7 182.73-29.18 181.98-30.65 180.68-31.55 179.38-32.45 177.73-32.45L177.73-32.45ZM192.23-7.5L192.23-7.5Q192.23-9.95 193.63-11.73 195.03-13.5 197.5-14.48 199.98-15.45 203.23-15.45L203.23-15.45Q205.13-15.45 207.18-15.15 209.23-14.85 210.83-14.25L210.83-14.25 210.83-16.45Q210.83-19.75 208.88-21.7 206.93-23.65 203.48-23.65L203.48-23.65Q201.38-23.65 199.35-22.88 197.33-22.1 195.13-20.6L195.13-20.6 193.83-23Q196.38-24.75 198.83-25.63 201.28-26.5 203.83-26.5L203.83-26.5Q208.63-26.5 211.43-23.75 214.23-21 214.23-16.15L214.23-16.15 214.23-4.1Q214.23-3.4 214.53-3.08 214.83-2.75 215.48-2.7L215.48-2.7 215.48 0Q214.93 0.05 214.53 0.1 214.13 0.15 213.93 0.1L213.93 0.1Q212.68 0.05 212.03-0.7 211.38-1.45 211.33-2.3L211.33-2.3 211.28-4.2Q209.53-1.95 206.73-0.73 203.93 0.5 201.03 0.5L201.03 0.5Q198.53 0.5 196.5-0.58 194.48-1.65 193.35-3.48 192.23-5.3 192.23-7.5ZM209.68-5.5L209.68-5.5Q210.23-6.2 210.53-6.85 210.83-7.5 210.83-8L210.83-8 210.83-11.8Q209.13-12.45 207.3-12.8 205.48-13.15 203.63-13.15L203.63-13.15Q199.98-13.15 197.73-11.7 195.48-10.25 195.48-7.75L195.48-7.75Q195.48-6.3 196.23-5.03 196.98-3.75 198.43-2.93 199.88-2.1 201.83-2.1L201.83-2.1Q204.28-2.1 206.4-3.05 208.53-4 209.68-5.5ZM230.13 0.5L230.13 0.5Q226.93 0.5 224.18-0.55 221.43-1.6 219.43-3.75L219.43-3.75 220.83-6.15Q223.03-4.1 225.25-3.18 227.48-2.25 229.98-2.25L229.98-2.25Q233.03-2.25 234.93-3.48 236.83-4.7 236.83-7L236.83-7Q236.83-8.55 235.9-9.38 234.98-10.2 233.25-10.73 231.53-11.25 229.13-11.85L229.13-11.85Q226.43-12.6 224.6-13.43 222.78-14.25 221.85-15.53 220.93-16.8 220.93-18.85L220.93-18.85Q220.93-21.4 222.2-23.08 223.48-24.75 225.7-25.63 227.93-26.5 230.68-26.5L230.68-26.5Q233.68-26.5 235.98-25.55 238.28-24.6 239.73-22.9L239.73-22.9 238.08-20.6Q236.68-22.2 234.75-22.98 232.83-23.75 230.48-23.75L230.48-23.75Q228.88-23.75 227.43-23.33 225.98-22.9 225.05-21.93 224.13-20.95 224.13-19.25L224.13-19.25Q224.13-17.85 224.83-17.07 225.53-16.3 226.93-15.78 228.33-15.25 230.38-14.65L230.38-14.65Q233.33-13.85 235.53-13.03 237.73-12.2 238.93-10.9 240.13-9.6 240.13-7.25L240.13-7.25Q240.13-3.6 237.38-1.55 234.63 0.5 230.13 0.5ZM257.32-4L258.22-1.25Q257.82-1.1 256.97-0.7 256.12-0.3 254.92 0 253.72 0.3 252.32 0.3L252.32 0.3Q250.87 0.3 249.6-0.25 248.32-0.8 247.57-1.93 246.82-3.05 246.82-4.7L246.82-4.7 246.82-23.35 243.22-23.35 243.22-26.05 246.82-26.05 246.82-34.85 250.22-34.85 250.22-26.05 256.22-26.05 256.22-23.35 250.22-23.35 250.22-5.65Q250.32-4.25 251.25-3.55 252.17-2.85 253.37-2.85L253.37-2.85Q254.77-2.85 255.92-3.33 257.07-3.8 257.32-4L257.32-4ZM265.87 0L262.47 0 262.47-26.05 265.87-26.05 265.87 0ZM265.87-31.5L262.47-31.5 262.47-36.5 265.87-36.5 265.87-31.5ZM284.47 0.5L284.47 0.5Q281.67 0.5 279.29-0.58 276.92-1.65 275.19-3.53 273.47-5.4 272.52-7.83 271.57-10.25 271.57-12.95L271.57-12.95Q271.57-15.75 272.52-18.18 273.47-20.6 275.22-22.48 276.97-24.35 279.34-25.43 281.72-26.5 284.52-26.5L284.52-26.5Q287.32-26.5 289.67-25.43 292.02-24.35 293.77-22.48 295.52-20.6 296.47-18.18 297.42-15.75 297.42-12.95L297.42-12.95Q297.42-10.25 296.47-7.83 295.52-5.4 293.79-3.53 292.07-1.65 289.69-0.58 287.32 0.5 284.47 0.5ZM275.02-12.9L275.02-12.9Q275.02-10 276.29-7.63 277.57-5.25 279.72-3.88 281.87-2.5 284.47-2.5L284.47-2.5Q287.07-2.5 289.22-3.9 291.37-5.3 292.67-7.73 293.97-10.15 293.97-13L293.97-13Q293.97-15.9 292.67-18.3 291.37-20.7 289.22-22.1 287.07-23.5 284.47-23.5L284.47-23.5Q281.87-23.5 279.74-22.05 277.62-20.6 276.32-18.23 275.02-15.85 275.02-12.9ZM325.01-15.25L325.01 0 321.62 0 321.62-14.55Q321.62-19.15 320.26-21.28 318.92-23.4 316.01-23.4L316.01-23.4Q314.01-23.4 312.06-22.43 310.12-21.45 308.64-19.78 307.17-18.1 306.51-15.95L306.51-15.95 306.51 0 303.12 0 303.12-26.05 306.22-26.05 306.22-20.15Q307.26-22.05 308.97-23.48 310.67-24.9 312.81-25.7 314.97-26.5 317.26-26.5L317.26-26.5Q319.42-26.5 320.92-25.7 322.42-24.9 323.31-23.43 324.22-21.95 324.62-19.88 325.01-17.8 325.01-15.25L325.01-15.25Z" opacity="1" transform="matrix(1,0,0,1,0,0)" fill="#000000" class="wordmark-text-0" data-fill-palette-color="primary" id="text-0"></path></svg></g></svg></g></svg></g></svg></g><g><svg viewBox="0 0 88.07503656257332 68.24253719475982" height="68.24253719475982" width="88.07503656257332"><g><svg xmlns="http://www.w3.org/2000/svg" xmlns:xlink="http://www.w3.org/1999/xlink" version="1.1" x="0" y="0" viewBox="21.8 28.200000000000003 56.400000000000006 43.7" enable-background="new 0 0 100 100" xml:space="preserve" height="68.24253719475982" width="88.07503656257332" class="icon-icon-0" data-fill-palette-color="accent" id="icon-0"><path d="M29.5 71.9l-1.4-1.4 42.3-42.3 1.399 1.4L29.5 71.9zM50 55c-0.2 0-0.5 0-0.7-0.1L47.6 56.6c0.7 0.301 1.5 0.4 2.3 0.4 3.9 0 7-3.1 7-7 0-0.8-0.2-1.6-0.4-2.3l-1.7 1.7c0 0.2 0.101 0.5 0.101 0.7C55 52.8 52.8 55 50 55zM50 45c0.2 0 0.5 0 0.7 0.1l1.7-1.7C51.6 43.2 50.8 43 50 43c-3.9 0-7 3.1-7 7 0 0.8 0.2 1.6 0.4 2.3l1.7-1.7c0-0.2-0.1-0.5-0.1-0.7C45 47.2 47.2 45 50 45zM66 38.3l-1.5 1.5c6.4 3.6 10.2 8.6 11.3 10.2-1.3 1.9-6.5 8.7-15.399 12.1C63.8 59.2 66 54.8 66 50c0-3.3-1-6.4-2.8-9l-1.4 1.4c1.4 2.2 2.2 4.8 2.2 7.5 0 7.7-6.3 14-14 14-2.8 0-5.4-0.801-7.5-2.2l-2.6 2.6c3 1 6.4 1.7 10.1 1.7 12.045 0 22.929-7.209 28.2-16C75.979 46.295 71.348 41.454 66 38.3zM35.5 60.2C29.1 56.6 25.3 51.6 24.2 50c1.3-1.9 6.5-8.7 15.4-12.1C36.2 40.8 34 45.2 34 50c0 3.3 1 6.4 2.8 9l1.4-1.4C36.8 55.4 36 52.8 36 50c0-7.7 6.3-14 14-14 2.8 0 5.4 0.8 7.5 2.2l2.6-2.6c-3-1-6.399-1.7-10.1-1.7-15.135 0-25.659 11.021-28.2 16.1 2.249 3.745 6.886 8.565 12.2 11.7L35.5 60.2z" fill="#000000" data-fill-palette-color="accent"></path></svg></g></svg></g></svg></g><defs></defs></svg><rect width="395.52" height="54.25681157875405" fill="none" stroke="none" visibility="hidden"></rect></g></svg></g></svg>