<?xml version="1.0" standalone="no"?>
<!DOCTYPE svg PUBLIC "-//W3C//DTD SVG 20010904//EN"
 "http://www.w3.org/TR/2001/REC-SVG-20010904/DTD/svg10.dtd">
<svg version="1.0" xmlns="http://www.w3.org/2000/svg"
 width="2000.000000pt" height="1500.000000pt" viewBox="0 0 2000.000000 1500.000000"
 preserveAspectRatio="xMidYMid meet">

<g transform="translate(0.000000,1500.000000) scale(0.100000,-0.100000)"
fill="#000000" stroke="none">
<path d="M0 7500 l0 -7500 10000 0 10000 0 0 7500 0 7500 -10000 0 -10000 0 0
-7500z m6205 1580 l50 -50 -1580 -1580 c-869 -869 -1584 -1580 -1590 -1580 -5
0 -31 21 -57 47 l-48 48 1582 1582 c871 871 1585 1583 1588 1583 3 0 28 -23
55 -50z m-1250 -395 c158 -25 415 -89 415 -104 0 -4 -42 -48 -93 -99 l-93 -93
-61 34 c-92 52 -177 83 -293 107 -136 28 -340 24 -465 -10 -168 -45 -328 -133
-457 -249 -125 -113 -250 -320 -297 -489 -68 -249 -41 -517 77 -754 l49 -97
-52 -51 -52 -51 -31 48 c-115 179 -176 400 -175 633 1 308 116 592 332 820 36
39 62 70 56 70 -5 0 -77 -33 -160 -74 -341 -168 -668 -434 -894 -726 l-71 -92
19 -30 c44 -70 175 -219 297 -337 135 -132 301 -262 439 -346 44 -27 82 -50
85 -52 2 -2 -21 -29 -53 -60 l-56 -57 -128 86 c-283 191 -548 448 -727 705
l-57 83 31 57 c80 150 338 435 530 587 395 312 863 508 1325 555 124 13 439 5
560 -14z m3393 -82 l-3 -78 -52 -3 -53 -3 0 80 0 81 55 0 56 0 -3 -77z m1352
-3 l0 -80 -55 0 -55 0 0 80 0 80 55 0 55 0 0 -80z m1790 -444 c0 -463 2 -526
16 -540 23 -24 61 -30 113 -18 25 6 49 8 52 4 4 -4 9 -23 13 -43 6 -34 4 -38
-24 -47 -17 -6 -56 -14 -89 -18 -74 -8 -140 18 -171 68 -19 32 -20 49 -20 576
l0 542 55 0 55 0 0 -524z m4080 443 l0 -80 -52 3 -53 3 -3 78 -3 77 56 0 55 0
0 -81z m-7922 36 c191 -45 334 -199 378 -406 19 -88 14 -278 -10 -351 -56
-176 -171 -296 -335 -350 -59 -19 -94 -22 -323 -26 l-258 -4 0 576 0 576 243
0 c178 0 259 -4 305 -15z m5183 5 c50 -14 119 -77 149 -136 19 -37 26 -69 28
-132 4 -77 2 -88 -28 -148 -21 -44 -45 -75 -76 -98 l-44 -34 54 -31 c89 -50
137 -128 144 -236 6 -90 -9 -142 -58 -204 -28 -35 -58 -59 -107 -83 l-68 -33
-312 -3 -313 -3 0 575 0 576 298 0 c168 0 313 -4 333 -10z m-2741 -150 l0
-140 95 0 95 0 0 -45 0 -45 -95 0 -95 0 0 -295 c0 -194 4 -302 11 -318 23 -51
105 -66 183 -33 40 17 39 18 60 -50 8 -26 -39 -50 -132 -65 -77 -13 -132 -3
-177 33 -52 41 -55 60 -55 408 l0 320 -61 0 -60 0 3 43 3 42 58 3 57 3 0 139
0 140 55 0 55 0 0 -140z m4980 0 l0 -140 95 0 95 0 0 -45 0 -45 -95 0 -95 0 0
-303 c0 -338 0 -338 68 -356 38 -11 90 -3 129 17 12 7 24 12 26 12 8 0 28 -80
22 -89 -3 -5 -27 -17 -53 -25 -115 -38 -197 -29 -260 29 l-37 33 -3 341 -3
341 -59 0 -60 0 0 45 0 45 60 0 60 0 0 140 0 140 55 0 55 0 0 -140z m-9076
-223 c196 -138 377 -302 523 -471 99 -116 213 -271 213 -291 0 -20 -107 -173
-195 -280 -355 -430 -891 -756 -1432 -869 -210 -45 -544 -60 -743 -36 -116 15
-305 54 -408 86 l-85 26 95 95 96 96 103 -51 c183 -90 372 -125 563 -103 142
16 231 42 361 106 125 61 247 153 326 248 164 195 244 396 256 642 9 191 -27
352 -115 525 l-43 84 51 51 51 50 19 -25 c29 -38 106 -197 130 -268 45 -137
54 -200 53 -382 0 -156 -3 -185 -26 -272 -58 -220 -146 -381 -290 -534 -103
-109 -102 -109 111 -4 316 158 626 407 848 683 109 136 107 124 41 209 -180
235 -455 483 -704 635 l-82 50 57 56 56 56 35 -21 c20 -12 80 -53 135 -91z
m3080 59 c31 -15 83 -54 116 -87 l60 -61 0 87 0 86 48 -3 47 -3 0 -470 0 -470
-28 -56 c-54 -111 -159 -180 -306 -201 -165 -24 -314 22 -407 125 -24 27 -44
52 -44 56 0 4 14 17 30 29 l30 23 50 -50 c71 -71 137 -95 265 -96 90 0 106 3
157 28 110 54 148 132 148 300 l0 99 -46 -51 c-28 -31 -69 -62 -107 -81 -235
-116 -503 43 -548 326 -34 209 91 429 277 488 75 24 188 16 258 -18z m1836 18
c69 -20 128 -61 164 -112 50 -73 56 -113 56 -379 0 -232 1 -243 20 -255 15
-10 20 -24 20 -55 l0 -43 -40 0 c-56 0 -90 34 -90 89 l0 40 -65 -49 c-118 -89
-290 -118 -400 -66 -163 75 -206 277 -84 393 60 56 140 86 248 91 86 4 193 -6
260 -24 23 -7 23 -7 20 67 -5 94 -30 143 -92 186 -88 60 -206 54 -344 -17
l-73 -38 -20 38 -19 38 22 15 c134 87 292 118 417 81z m2805 -13 c65 -29 128
-91 157 -155 22 -48 23 -65 26 -309 3 -242 5 -259 23 -270 14 -9 19 -23 19
-54 l0 -43 -39 0 c-46 0 -91 31 -91 63 0 12 -3 32 -6 44 -6 22 -8 21 -56 -22
-66 -59 -141 -87 -251 -93 -98 -5 -146 8 -215 58 -86 62 -119 205 -69 301 30
56 112 113 192 134 75 19 209 19 300 0 38 -8 74 -15 79 -15 5 0 6 34 4 75 -6
98 -41 157 -113 194 -42 22 -62 26 -132 25 -78 0 -89 -3 -174 -46 l-90 -45
-19 38 -19 37 22 15 c46 30 129 68 180 82 76 21 208 15 272 -14z m875 4 c53
-21 130 -74 130 -89 0 -5 -10 -24 -22 -42 l-22 -32 -45 34 c-122 93 -354 81
-397 -21 -30 -72 -9 -131 58 -162 24 -11 101 -37 171 -58 136 -41 217 -82 251
-128 33 -45 30 -157 -6 -218 -51 -87 -146 -129 -292 -129 -132 0 -233 33 -310
101 l-36 31 21 39 20 40 37 -29 c93 -73 207 -106 316 -91 104 14 166 68 166
146 0 76 -32 98 -227 154 -177 51 -223 76 -262 139 -27 45 -28 138 -2 195 44
97 158 148 316 141 55 -2 107 -10 135 -21z m1694 10 c76 -20 134 -55 191 -116
201 -215 138 -579 -122 -702 -64 -30 -75 -32 -178 -32 -98 0 -116 3 -167 27
-268 126 -333 498 -124 712 107 110 251 150 400 111z m1039 3 c57 -17 110 -72
138 -143 22 -58 23 -72 27 -382 l4 -323 -56 0 -56 0 0 278 c0 295 -8 363 -50
422 -86 121 -334 43 -418 -131 -21 -43 -22 -58 -22 -307 l0 -262 -55 0 -55 0
0 425 0 425 50 0 50 0 0 -96 0 -96 33 44 c91 119 278 186 410 146z m-8975
-425 l2 -423 -55 0 -55 0 0 426 0 425 53 -3 52 -3 3 -422z m1352 2 l0 -425
-55 0 -55 0 0 425 0 425 55 0 55 0 0 -425z m5870 0 l0 -425 -55 0 -55 0 0 418
c0 230 3 422 7 425 3 4 28 7 55 7 l48 0 0 -425z m-10817 84 l49 -12 -62 -62
c-58 -59 -65 -62 -100 -58 -20 3 -60 0 -88 -6 -175 -37 -289 -166 -300 -339
l-4 -77 -56 -57 c-31 -32 -59 -58 -63 -58 -3 0 -11 26 -18 57 -59 296 127 569
429 627 39 7 160 -1 213 -15z m378 -433 c10 -53 10 -87 1 -148 -37 -257 -258
-447 -519 -448 -66 0 -163 17 -163 29 0 3 26 32 58 63 l57 56 76 4 c138 8 257
86 316 207 21 43 27 71 29 134 l2 79 58 59 c39 40 60 55 66 47 4 -7 13 -44 19
-82z m2337 -824 c3 -17 -2 -22 -17 -22 -14 0 -21 6 -21 18 0 38 33 41 38 4z
m390 0 c3 -16 -2 -22 -17 -22 -26 0 -36 17 -20 36 16 19 33 13 37 -14z m539
-118 c3 -164 7 -184 33 -184 24 0 37 -20 19 -31 -23 -14 -38 -10 -64 16 -24
23 -25 28 -25 178 0 84 3 157 7 161 21 21 28 -10 30 -140z m1171 118 c3 -17
-2 -22 -17 -22 -14 0 -21 6 -21 18 0 38 33 41 38 4z m2412 -49 c0 -50 1 -53
19 -43 70 37 141 -24 141 -122 0 -100 -86 -157 -152 -100 -16 14 -18 13 -18
-1 0 -10 -7 -17 -15 -17 -13 0 -15 26 -15 173 0 96 3 177 7 180 16 17 33 -19
33 -70z m1828 49 c3 -17 -2 -22 -17 -22 -14 0 -21 6 -21 18 0 38 33 41 38 4z
m830 -45 l3 -67 29 15 c39 20 62 19 94 -6 25 -20 26 -24 26 -125 0 -97 -1
-104 -20 -104 -19 0 -20 7 -20 93 0 100 -7 117 -49 117 -49 0 -61 -24 -61
-122 0 -81 -2 -88 -20 -88 -19 0 -20 7 -20 173 0 96 3 177 7 181 17 17 28 -6
31 -67z m270 45 c3 -17 -2 -22 -17 -22 -14 0 -21 6 -21 18 0 38 33 41 38 4z
m382 -137 c5 -158 5 -159 29 -165 30 -7 38 -25 16 -34 -25 -9 -64 4 -75 24
-11 21 -14 323 -3 334 22 21 28 -11 33 -159z m292 -23 c3 -158 2 -172 -14
-172 -10 0 -18 6 -18 14 0 10 -8 9 -39 -6 -69 -34 -122 7 -129 101 -7 100 46
157 124 133 l34 -10 0 58 c0 55 13 79 32 61 3 -3 8 -84 10 -179z m-8295 138
c51 -31 68 -65 68 -140 0 -129 -41 -170 -174 -170 l-81 0 0 165 0 165 78 0
c59 0 85 -5 109 -20z m1524 -9 c25 -31 25 -83 -2 -107 l-21 -19 28 -22 c37
-29 40 -91 6 -125 -19 -20 -35 -24 -107 -27 l-85 -3 0 167 0 167 81 -4 c70 -3
83 -6 100 -27z m1639 -31 c22 -33 42 -60 44 -60 2 0 21 27 42 60 29 45 45 60
62 60 26 0 28 5 -40 -97 -47 -71 -48 -73 -48 -153 0 -73 -2 -80 -20 -80 -18 0
-20 7 -20 86 0 86 0 86 -45 150 -58 81 -63 94 -36 94 14 0 33 -19 61 -60z
m-2462 7 c2 -18 10 -27 25 -29 12 -2 23 -11 25 -20 3 -14 -3 -18 -23 -18 l-26
0 3 -87 c3 -83 4 -87 27 -93 30 -7 38 -25 16 -34 -25 -9 -64 4 -75 24 -6 10
-10 57 -10 104 0 70 -3 86 -15 86 -8 0 -15 9 -15 20 0 11 6 20 14 20 8 0 17
14 21 31 8 36 29 34 33 -4z m1422 3 c0 -25 4 -30 25 -30 18 0 25 -5 25 -20 0
-15 -7 -20 -25 -20 -25 0 -25 -1 -25 -77 0 -85 5 -99 34 -104 27 -5 31 -26 8
-33 -27 -9 -69 12 -76 38 -3 11 -6 56 -6 99 0 62 -3 77 -15 77 -8 0 -15 9 -15
20 0 11 7 20 15 20 9 0 18 12 22 30 3 17 12 30 19 30 9 0 14 -11 14 -30z
m4530 0 c0 -25 4 -30 25 -30 18 0 25 -5 25 -20 0 -15 -7 -20 -25 -20 -24 0
-25 -2 -25 -74 0 -87 5 -106 30 -106 25 0 36 -20 19 -31 -23 -14 -38 -10 -64
16 -23 22 -25 32 -25 110 0 69 -3 85 -15 85 -22 0 -18 27 5 40 11 6 20 19 20
29 0 10 3 21 7 24 14 15 23 6 23 -23z m-6472 -158 c2 -117 2 -122 -18 -122
-19 0 -20 6 -20 118 0 65 3 122 7 126 21 20 28 -9 31 -122z m292 108 c0 -13
-7 -20 -18 -20 -15 0 -17 -6 -14 -34 5 -44 -23 -73 -78 -82 -79 -13 -76 -56 6
-68 65 -8 84 -21 84 -56 0 -50 -30 -70 -103 -70 -37 0 -71 6 -81 13 -25 19
-24 67 3 88 13 10 17 20 11 24 -14 8 -13 48 2 63 9 9 8 16 -5 30 -22 25 -22
85 1 104 26 23 40 26 120 27 66 1 72 -1 72 -19z m98 -108 c2 -117 2 -122 -18
-122 -19 0 -20 6 -20 126 0 114 2 125 18 122 15 -3 17 -18 20 -126z m386 117
c34 -16 46 -56 46 -155 0 -69 -3 -84 -15 -84 -9 0 -18 7 -22 15 -5 14 -8 14
-24 -1 -26 -23 -92 -23 -118 0 -22 20 -28 65 -11 96 12 22 60 40 107 40 32 0
34 2 31 28 -3 26 -5 27 -63 27 -65 0 -82 13 -44 32 30 16 80 16 113 2z m800 0
c34 -16 46 -56 46 -155 0 -69 -3 -84 -15 -84 -9 0 -18 7 -22 15 -5 14 -8 14
-24 -1 -26 -23 -92 -23 -118 0 -22 20 -28 65 -11 96 11 21 60 40 106 40 39 0
49 12 34 41 -10 18 -19 20 -68 17 -62 -3 -79 9 -41 29 30 16 80 16 113 2z
m232 -3 c18 -14 18 -15 2 -21 -10 -4 -25 -4 -34 -1 -23 9 -54 -11 -54 -35 0
-14 12 -25 38 -36 68 -28 88 -64 62 -112 -21 -39 -100 -50 -137 -19 -23 18 -4
27 46 21 44 -5 50 -3 56 16 9 29 1 39 -53 64 -49 23 -60 44 -48 91 10 41 84
60 122 32z m292 -114 c2 -117 2 -122 -18 -122 -19 0 -20 6 -20 126 0 114 2
125 18 122 15 -3 17 -18 20 -126z m239 108 c38 -23 58 -81 47 -138 -10 -53
-31 -80 -71 -91 -49 -14 -89 -3 -118 31 -34 40 -36 132 -4 172 38 49 93 58
146 26z m266 9 c34 -18 37 -27 37 -136 0 -96 -1 -103 -20 -103 -18 0 -20 8
-22 103 l-3 102 -33 3 c-59 6 -72 -17 -72 -120 0 -81 -2 -88 -20 -88 -19 0
-20 7 -20 120 0 98 3 120 14 120 8 0 18 -5 21 -10 4 -6 16 -5 33 5 33 17 57
19 85 4z m145 -13 c4 -21 -14 -37 -35 -29 -14 5 -18 35 -6 47 12 12 38 1 41
-18z m601 -10 c23 -23 26 -35 26 -95 0 -59 -4 -73 -23 -94 -29 -30 -68 -39
-116 -26 -60 17 -88 88 -66 168 21 80 120 106 179 47z m131 -60 c0 -73 4 -98
16 -110 18 -18 47 -20 75 -6 17 9 19 22 19 106 0 76 3 96 15 101 9 3 17 4 19
2 2 -2 6 -59 7 -127 4 -111 2 -122 -13 -122 -10 0 -18 6 -18 14 0 11 -8 9 -38
-5 -47 -23 -93 -12 -111 27 -12 27 -16 196 -4 207 3 4 12 7 20 7 10 0 13 -22
13 -94z m355 74 c0 -8 -11 -17 -25 -18 -45 -7 -50 -19 -50 -118 0 -87 -1 -94
-20 -94 -19 0 -20 7 -20 98 0 53 -3 107 -6 120 -5 18 -2 22 15 22 11 0 21 -5
21 -11 0 -5 10 -3 23 6 26 19 62 16 62 -5z m313 14 c14 -4 22 -13 20 -22 -2
-13 -14 -15 -54 -13 -59 3 -73 -9 -81 -68 -7 -48 12 -98 39 -106 10 -4 38 -5
61 -3 31 2 42 -1 42 -11 0 -22 -59 -33 -104 -21 -56 15 -74 41 -79 113 -3 53
-1 66 18 90 34 42 80 56 138 41z m124 -74 c16 -41 31 -82 34 -90 3 -9 20 23
38 75 21 58 39 91 50 93 24 5 20 -14 -25 -134 -23 -60 -50 -133 -61 -161 -14
-39 -25 -53 -39 -53 -24 0 -24 7 1 64 l19 46 -43 114 c-24 63 -41 118 -38 121
18 17 39 -8 64 -75z m631 52 c11 -12 21 -39 24 -66 l6 -46 -82 0 c-78 0 -81
-1 -81 -23 0 -37 32 -60 77 -55 21 3 44 7 52 9 8 2 16 -4 19 -13 5 -25 -65
-42 -118 -28 -54 14 -75 48 -75 120 0 62 21 105 58 120 33 14 97 4 120 -18z
m212 8 c0 -8 -11 -17 -25 -18 -45 -7 -50 -19 -50 -118 0 -87 -1 -94 -20 -94
-19 0 -20 7 -20 98 0 53 -3 107 -6 120 -5 18 -2 22 15 22 11 0 21 -5 21 -11 0
-5 10 -3 23 6 26 19 62 16 62 -5z m164 11 c8 -5 11 -16 8 -25 -5 -12 -12 -14
-29 -7 -31 12 -70 -4 -66 -26 2 -10 25 -29 52 -43 56 -29 72 -59 53 -98 -18
-38 -62 -57 -106 -46 -20 5 -37 16 -39 25 -3 14 6 17 50 15 51 -1 53 0 56 27
3 24 -2 30 -35 43 -77 32 -94 74 -48 119 25 26 76 33 104 16z m225 -1 c30 -11
56 -57 56 -100 l0 -30 -80 0 c-77 0 -80 -1 -80 -23 0 -37 32 -60 77 -55 21 3
44 7 52 9 8 2 16 -4 19 -13 5 -25 -65 -42 -118 -28 -49 13 -72 45 -77 108 -9
101 64 165 151 132z m264 4 c14 -4 22 -13 20 -22 -2 -13 -14 -15 -54 -13 -59
3 -73 -9 -81 -68 -7 -48 12 -98 39 -106 10 -4 38 -5 61 -3 31 2 42 -1 42 -11
0 -22 -59 -33 -104 -21 -56 15 -74 41 -79 113 -3 53 -1 66 18 90 34 42 80 56
138 41z m120 -94 c1 -52 8 -100 14 -107 15 -19 62 -16 81 5 12 13 17 42 19
107 2 72 6 90 18 90 12 0 15 -22 18 -122 2 -102 0 -123 -12 -123 -8 0 -16 5
-18 10 -2 7 -17 5 -41 -5 -21 -9 -48 -13 -62 -9 -44 11 -55 39 -55 145 0 52 3
99 7 103 19 19 28 -8 31 -94z m350 77 c2 -12 -3 -17 -19 -17 -47 0 -59 -26
-59 -122 0 -81 -2 -88 -20 -88 -19 0 -20 7 -20 120 0 98 3 120 14 120 8 0 18
-5 21 -10 4 -6 14 -5 28 5 27 19 51 16 55 -8z m100 -105 c2 -117 2 -122 -18
-122 -19 0 -20 6 -20 118 0 65 3 122 7 126 21 20 28 -9 31 -122z m284 53 c14
-39 29 -79 33 -90 4 -15 14 3 38 67 36 96 40 103 61 95 11 -5 2 -39 -49 -174
-52 -138 -67 -169 -84 -171 -26 -4 -26 4 -1 62 l19 46 -43 114 c-24 63 -41
118 -38 121 17 17 39 -7 64 -70z m412 69 c9 -3 16 -12 16 -20 0 -10 -12 -13
-41 -12 -70 2 -73 -49 -4 -72 38 -12 65 -43 65 -73 0 -27 -54 -77 -84 -77 -38
0 -77 21 -73 39 2 9 10 14 18 12 51 -15 78 -12 89 8 15 28 7 39 -45 61 -68 29
-83 73 -40 115 24 25 65 32 99 19z m404 -122 c2 -117 2 -122 -18 -122 -19 0
-20 6 -20 118 0 65 3 122 7 126 21 20 28 -9 31 -122z m232 113 c20 -10 33 -28
41 -54 19 -63 11 -70 -78 -73 -72 -3 -78 -5 -75 -23 7 -39 33 -57 77 -53 22 3
46 6 54 9 8 2 16 -4 19 -13 5 -25 -65 -42 -118 -28 -58 16 -82 57 -77 132 6
98 77 144 157 103z m-4922 -213 c3 -18 -1 -22 -22 -22 -19 0 -26 5 -26 18 0
39 43 43 48 4z"/>
<path d="M7212 8078 l3 -473 150 -3 c178 -3 260 9 337 50 175 93 262 320 213
553 -31 147 -102 242 -223 302 l-76 38 -203 3 -203 4 2 -474z"/>
<path d="M12310 8340 l0 -210 218 0 c206 0 220 1 262 23 26 13 57 40 74 65 67
95 37 251 -58 307 -42 25 -46 25 -269 25 l-227 0 0 -210z"/>
<path d="M12310 7821 l0 -221 234 0 234 0 53 28 c147 76 158 282 21 377 l-44
30 -249 3 -249 4 0 -221z"/>
<path d="M8849 8247 c-128 -48 -206 -187 -197 -351 10 -181 136 -309 303 -310
113 0 224 66 266 159 27 59 27 290 0 343 -26 51 -96 118 -151 144 -55 27 -167
35 -221 15z"/>
<path d="M10715 7923 c-11 -2 -41 -11 -67 -19 -144 -46 -164 -217 -35 -302 36
-24 49 -27 126 -26 97 1 153 20 215 74 54 48 66 78 66 163 l0 74 -42 12 c-104
28 -205 37 -263 24z"/>
<path d="M13454 7917 c-100 -26 -164 -91 -164 -167 0 -70 68 -150 143 -171
101 -27 258 24 322 104 27 35 30 47 33 121 l4 83 -69 17 c-90 24 -206 29 -269
13z"/>
<path d="M16085 8248 c-92 -33 -184 -143 -206 -246 -33 -163 36 -317 176 -390
69 -36 169 -37 239 -2 114 55 178 160 184 300 5 107 -19 177 -84 249 -62 69
-130 101 -213 100 -37 0 -79 -5 -96 -11z"/>
<path d="M11993 6623 c-9 -3 -13 -29 -13 -79 0 -69 2 -75 24 -85 40 -18 73 -4
86 37 13 39 8 97 -11 120 -11 13 -61 18 -86 7z"/>
<path d="M15436 6608 c-19 -27 -21 -93 -3 -128 15 -29 50 -37 83 -19 22 11 24
19 24 85 0 78 -4 84 -60 84 -18 0 -35 -8 -44 -22z"/>
<path d="M7140 6580 l0 -130 41 0 c52 0 103 24 118 56 6 14 11 52 11 85 0 54
-3 64 -29 90 -26 25 -37 29 -85 29 l-56 0 0 -130z"/>
<path d="M8670 6660 l0 -50 43 0 c48 0 77 22 77 56 0 32 -20 44 -72 44 l-48 0
0 -50z"/>
<path d="M8670 6510 l0 -60 43 0 c58 0 87 22 87 65 0 42 -20 55 -84 55 l-46 0
0 -60z"/>
<path d="M7602 6624 c-44 -31 -21 -74 40 -74 44 0 66 27 49 59 -18 33 -54 40
-89 15z"/>
<path d="M7580 6405 c-20 -24 -1 -49 40 -53 49 -5 80 6 80 28 0 24 -5 27 -61
35 -36 5 -48 3 -59 -10z"/>
<path d="M8171 6531 c-33 -9 -49 -36 -35 -58 15 -24 39 -28 75 -13 24 10 29
18 29 46 0 36 -13 41 -69 25z"/>
<path d="M8971 6531 c-33 -9 -49 -36 -35 -58 15 -25 47 -27 84 -8 25 13 31 22
28 43 -3 29 -30 37 -77 23z"/>
<path d="M9696 6608 c-9 -12 -16 -43 -16 -68 0 -60 21 -90 64 -90 48 0 66 25
66 93 0 66 -16 87 -65 87 -24 0 -39 -7 -49 -22z"/>
<path d="M10702 6622 c-18 -12 -33 -72 -26 -107 9 -41 32 -65 64 -65 49 0 65
22 65 88 0 35 -5 66 -14 75 -14 18 -67 23 -89 9z"/>
<path d="M12256 6614 c-9 -8 -16 -24 -16 -35 0 -17 7 -19 60 -19 64 0 72 9 50
51 -13 24 -72 26 -94 3z"/>
<path d="M12886 6614 c-9 -8 -16 -24 -16 -35 0 -17 7 -19 60 -19 65 0 72 8 44
48 -18 26 -65 30 -88 6z"/>
<path d="M15042 6618 c-5 -7 -13 -23 -16 -35 -7 -22 -5 -23 59 -23 64 0 66 1
59 23 -11 36 -24 47 -59 47 -18 0 -37 -6 -43 -12z"/>
</g>
</svg>
